<?xml version="1.0" encoding="utf-8"?>
<!-- Generator: Adobe Illustrator 21.0.0, SVG Export Plug-In . SVG Version: 6.00 Build 0)  -->
<svg version="1.1" id="Layer_1" xmlns="http://www.w3.org/2000/svg" xmlns:xlink="http://www.w3.org/1999/xlink" x="0px" y="0px"
	 viewBox="0 0 343.4 61.4" style="enable-background:new 0 0 343.4 61.4;" xml:space="preserve">
<style type="text/css">
	.st0{opacity:0.8;}
	.st1{fill:#0E160E;}
	.st2{enable-background:new    ;}
</style>
<title>image-logo</title>
<g id="header-footer">
	<g class="st0">
		<path class="st1" d="M69.6,3.9C68,1.4,65.3,0,62.4,0H42.4l11,17c1.6,2.4,4.3,3.9,7.2,3.9h19.9L69.6,3.9z"/>
		<path class="st1" d="M53.5,29.9c1.6-2.4,4.3-3.9,7.2-3.9h19.9l-11,16.9c-1.6,2.4-4.3,3.9-7.2,3.9H42.4L53.5,29.9z"/>
		<path class="st1" d="M44.8,30.3c1.1-1.7,2.4-3.1,4-4.3H27.7c-2.9,0-5.6,1.5-7.2,3.9L0,61.4h19.9c2.9,0,5.6-1.4,7.2-3.9L44.8,30.3z
			"/>
		<path class="st1" d="M100.1,35.4h2.7c0.6,0,3.5,0.2,3.5-2.5s-2.3-2.6-4.2-2.6h-2L100.1,35.4z M95.1,26h8.2c4.8,0,8.1,1.5,8.1,6.8
			c0,4.9-3,7.1-7.9,7.1H100v6.9h-4.9V26z"/>
		<polygon class="st1" points="118.9,30.6 118.9,34.1 127.3,34.1 127.3,38.6 118.9,38.6 118.9,42.2 127.7,42.2 127.7,46.8 114,46.8 
			114,26 127.7,26 127.7,30.6 		"/>
		<path class="st1" d="M136.7,35.3h2.3c1.6,0,3.4-0.3,3.4-2.6s-1.8-2.6-3.4-2.6h-2.3L136.7,35.3z M149.7,46.8h-6.1l-6-8h-0.9l0,0v8
			h-4.9V26h9.2c3.7,0,6.6,2,6.6,6.4c0.2,2.9-1.8,5.4-4.7,6L149.7,46.8z"/>
		<polygon class="st1" points="160.4,46.9 155.4,46.9 155.4,30.6 149.5,30.6 149.5,26 166.3,26 166.3,30.6 160.4,30.6 		"/>
		<path class="st1" d="M174.6,32.4L174.6,32.4l-2.1,6.6h4.1L174.6,32.4z M171.1,43.2l-1.3,3.6h-5.2l7.3-20.8h5.4l7.1,20.8h-5.2
			l-1.2-3.6L171.1,43.2z"/>
		<polygon class="st1" points="189.1,26 194,26 197.8,37.1 201.9,26 206.8,26 209.6,46.8 204.7,46.8 203.3,34.8 203.3,34.8 
			198.7,46.8 196.8,46.8 192.4,34.8 192.4,34.8 190.8,46.8 185.9,46.8 		"/>
		<rect x="212.8" y="26" class="st1" width="4.9" height="20.8"/>
		<polygon class="st1" points="222,26 226.9,26 236,38.7 236,38.7 236,26 240.9,26 240.9,46.8 236,46.8 227,34.1 226.9,34.1 
			226.9,46.8 222,46.8 		"/>
		<path class="st1" d="M253.4,32.4L253.4,32.4l-2.1,6.6h4.1L253.4,32.4z M250,43.2l-1.3,3.6h-5.2l7.2-20.8h5.4l7.1,20.8H258
			l-1.2-3.6L250,43.2z"/>
		<g class="st2">
			<path class="st1" d="M300.4,35.1c-0.1,3.1-0.3,5.7-2.2,8.3c-2.1,2.9-5.2,4.1-8.7,4.1c-6.6,0-11.3-4.5-11.3-11.1
				c0-6.9,4.6-11.4,11.5-11.4c4.3,0,7.7,2,9.5,5.9l-5.2,2.2c-0.8-2-2.4-3.4-4.6-3.4c-3.6,0-5.5,3.4-5.5,6.7c0,3.3,2,6.6,5.6,6.6
				c2.4,0,4.2-1.2,4.4-3.7h-4.5v-4.3H300.4z"/>
			<path class="st1" d="M308.3,43.2l-1.5,3.7H301l8.1-21.1h6l8,21.1h-5.9l-1.4-3.7H308.3z M312.1,32.3L312.1,32.3l-2.3,6.7h4.6
				L312.1,32.3z"/>
			<path class="st1" d="M336.4,31.2c-1-0.8-2.3-1.4-3.6-1.4c-1,0-2.4,0.6-2.4,1.8c0,1.2,1.5,1.7,2.4,2l1.4,0.4
				c2.9,0.9,5.2,2.4,5.2,5.8c0,2.1-0.5,4.3-2.2,5.7c-1.7,1.4-3.9,2-6,2c-2.7,0-5.3-0.9-7.4-2.4l2.4-4.4c1.4,1.2,3,2.2,4.9,2.2
				c1.3,0,2.7-0.6,2.7-2.1c0-1.5-2.2-2.1-3.3-2.4c-3.4-1-5.7-1.9-5.7-6c0-4.3,3.1-7.1,7.3-7.1c2.1,0,4.7,0.7,6.6,1.7L336.4,31.2z"/>
		</g>
	</g>
</g>
</svg>
